<svg width="48" height="48" viewBox="0 0 48 48" fill="none" xmlns="http://www.w3.org/2000/svg">
<path d="M35.012 32.9658L32.1726 35.8052L39.0047 42.6372L41.844 39.7979L35.012 32.9658Z" fill="url(#paint0_linear_19_238)"/>
<g filter="url(#filter0_f_19_238)">
<path d="M34.4038 33.5742L33.6538 34.3242L40.4859 41.1563L41.2359 40.4063L34.4038 33.5742Z" fill="url(#paint1_linear_19_238)"/>
</g>
<g filter="url(#filter1_i_19_238)">
<path d="M3.303 9.92652C2.74008 9.3636 2.42399 8.60002 2.42432 7.80393L2.42591 4.06038C2.42612 3.56362 2.82876 3.16098 3.32553 3.16077L7.06908 3.15918C7.86516 3.15883 8.62875 3.47494 9.19167 4.03786L36.4371 31.2832L30.5484 37.1719L3.303 9.92652Z" fill="url(#paint2_linear_19_238)"/>
<path d="M3.303 9.92652C2.74008 9.3636 2.42399 8.60002 2.42432 7.80393L2.42591 4.06038C2.42612 3.56362 2.82876 3.16098 3.32553 3.16077L7.06908 3.15918C7.86516 3.15883 8.62875 3.47494 9.19167 4.03786L36.4371 31.2832L30.5484 37.1719L3.303 9.92652Z" fill="url(#paint3_linear_19_238)"/>
<path d="M3.303 9.92652C2.74008 9.3636 2.42399 8.60002 2.42432 7.80393L2.42591 4.06038C2.42612 3.56362 2.82876 3.16098 3.32553 3.16077L7.06908 3.15918C7.86516 3.15883 8.62875 3.47494 9.19167 4.03786L36.4371 31.2832L30.5484 37.1719L3.303 9.92652Z" fill="url(#paint4_radial_19_238)"/>
</g>
<g filter="url(#filter2_i_19_238)">
<path d="M37.893 44.3409C37.1115 43.5594 37.1115 42.2923 37.893 41.5108L40.7174 38.6865C41.4989 37.905 42.7659 37.905 43.5474 38.6865C44.3289 39.468 44.3289 40.735 43.5474 41.5165L40.7231 44.3409C39.9416 45.1224 38.6745 45.1224 37.893 44.3409Z" fill="url(#paint5_linear_19_238)"/>
<path d="M37.893 44.3409C37.1115 43.5594 37.1115 42.2923 37.893 41.5108L40.7174 38.6865C41.4989 37.905 42.7659 37.905 43.5474 38.6865C44.3289 39.468 44.3289 40.735 43.5474 41.5165L40.7231 44.3409C39.9416 45.1224 38.6745 45.1224 37.893 44.3409Z" fill="url(#paint6_radial_19_238)"/>
</g>
<path d="M37.893 44.3409C37.1115 43.5594 37.1115 42.2923 37.893 41.5108L40.7174 38.6865C41.4989 37.905 42.7659 37.905 43.5474 38.6865C44.3289 39.468 44.3289 40.735 43.5474 41.5165L40.7231 44.3409C39.9416 45.1224 38.6745 45.1224 37.893 44.3409Z" fill="url(#paint7_radial_19_238)"/>
<g filter="url(#filter3_i_19_238)">
<path d="M2.67505 3.43917C2.83883 3.26771 3.06973 3.16087 3.32552 3.16077L7.06903 3.15918C7.86517 3.15883 8.62871 3.47494 9.19159 4.03786L36.4371 31.2832L33.478 34.2422L2.67505 3.43917Z" fill="url(#paint8_linear_19_238)"/>
<path d="M2.67505 3.43917C2.83883 3.26771 3.06973 3.16087 3.32552 3.16077L7.06903 3.15918C7.86517 3.15883 8.62871 3.47494 9.19159 4.03786L36.4371 31.2832L33.478 34.2422L2.67505 3.43917Z" fill="url(#paint9_linear_19_238)"/>
<path d="M2.67505 3.43917C2.83883 3.26771 3.06973 3.16087 3.32552 3.16077L7.06903 3.15918C7.86517 3.15883 8.62871 3.47494 9.19159 4.03786L36.4371 31.2832L33.478 34.2422L2.67505 3.43917Z" fill="url(#paint10_radial_19_238)"/>
<path d="M2.67505 3.43917C2.83883 3.26771 3.06973 3.16087 3.32552 3.16077L7.06903 3.15918C7.86517 3.15883 8.62871 3.47494 9.19159 4.03786L36.4371 31.2832L33.478 34.2422L2.67505 3.43917Z" fill="url(#paint11_radial_19_238)"/>
</g>
<path d="M25.0405 38.1779C25.0405 38.3905 25.189 38.5751 25.3984 38.612C26.0089 38.72 26.6373 38.7763 27.2788 38.7763C33.2061 38.7763 38.0109 33.9713 38.0109 28.0442C38.0109 27.445 37.9618 26.8571 37.8673 26.2846C37.8325 26.0731 37.6468 25.9219 37.4323 25.9219H34.242C33.9346 25.9219 33.7173 26.2238 33.787 26.5232C33.9007 27.0118 33.9609 27.521 33.9609 28.0442C33.9609 31.7347 30.9693 34.7263 27.2788 34.7263C26.7172 34.7263 26.1718 34.657 25.6506 34.5265C25.3491 34.451 25.0405 34.6688 25.0405 34.9798V38.1779Z" fill="#614B76"/>
<path d="M25.0405 38.1779C25.0405 38.3905 25.189 38.5751 25.3984 38.612C26.0089 38.72 26.6373 38.7763 27.2788 38.7763C33.2061 38.7763 38.0109 33.9713 38.0109 28.0442C38.0109 27.445 37.9618 26.8571 37.8673 26.2846C37.8325 26.0731 37.6468 25.9219 37.4323 25.9219H34.242C33.9346 25.9219 33.7173 26.2238 33.787 26.5232C33.9007 27.0118 33.9609 27.521 33.9609 28.0442C33.9609 31.7347 30.9693 34.7263 27.2788 34.7263C26.7172 34.7263 26.1718 34.657 25.6506 34.5265C25.3491 34.451 25.0405 34.6688 25.0405 34.9798V38.1779Z" fill="url(#paint12_linear_19_238)"/>
<path d="M25.0405 38.1779C25.0405 38.3905 25.189 38.5751 25.3984 38.612C26.0089 38.72 26.6373 38.7763 27.2788 38.7763C33.2061 38.7763 38.0109 33.9713 38.0109 28.0442C38.0109 27.445 37.9618 26.8571 37.8673 26.2846C37.8325 26.0731 37.6468 25.9219 37.4323 25.9219H34.242C33.9346 25.9219 33.7173 26.2238 33.787 26.5232C33.9007 27.0118 33.9609 27.521 33.9609 28.0442C33.9609 31.7347 30.9693 34.7263 27.2788 34.7263C26.7172 34.7263 26.1718 34.657 25.6506 34.5265C25.3491 34.451 25.0405 34.6688 25.0405 34.9798V38.1779Z" fill="url(#paint13_radial_19_238)"/>
<path d="M25.0405 38.1779C25.0405 38.3905 25.189 38.5751 25.3984 38.612C26.0089 38.72 26.6373 38.7763 27.2788 38.7763C33.2061 38.7763 38.0109 33.9713 38.0109 28.0442C38.0109 27.445 37.9618 26.8571 37.8673 26.2846C37.8325 26.0731 37.6468 25.9219 37.4323 25.9219H34.242C33.9346 25.9219 33.7173 26.2238 33.787 26.5232C33.9007 27.0118 33.9609 27.521 33.9609 28.0442C33.9609 31.7347 30.9693 34.7263 27.2788 34.7263C26.7172 34.7263 26.1718 34.657 25.6506 34.5265C25.3491 34.451 25.0405 34.6688 25.0405 34.9798V38.1779Z" fill="url(#paint14_radial_19_238)"/>
<path d="M25.0405 38.1779C25.0405 38.3905 25.189 38.5751 25.3984 38.612C26.0089 38.72 26.6373 38.7763 27.2788 38.7763C33.2061 38.7763 38.0109 33.9713 38.0109 28.0442C38.0109 27.445 37.9618 26.8571 37.8673 26.2846C37.8325 26.0731 37.6468 25.9219 37.4323 25.9219H34.242C33.9346 25.9219 33.7173 26.2238 33.787 26.5232C33.9007 27.0118 33.9609 27.521 33.9609 28.0442C33.9609 31.7347 30.9693 34.7263 27.2788 34.7263C26.7172 34.7263 26.1718 34.657 25.6506 34.5265C25.3491 34.451 25.0405 34.6688 25.0405 34.9798V38.1779Z" fill="url(#paint15_radial_19_238)"/>
<g filter="url(#filter4_f_19_238)">
<path d="M27.2789 37.8762C26.8245 37.8762 26.3778 37.8454 25.9406 37.7859V35.5083C26.3756 35.5858 26.8229 35.6262 27.2789 35.6262C31.4663 35.6262 34.8609 32.2315 34.8609 28.0441C34.8609 27.6285 34.8275 27.2202 34.7628 26.8218H37.0358C37.0854 27.222 37.1109 27.6298 37.1109 28.0441C37.1109 33.4743 32.709 37.8762 27.2789 37.8762Z" fill="url(#paint16_linear_19_238)"/>
</g>
<path d="M11.5459 32.9658L14.3853 35.8052L7.5532 42.6372L4.71384 39.7979L11.5459 32.9658Z" fill="url(#paint17_linear_19_238)"/>
<g filter="url(#filter5_f_19_238)">
<path d="M12.1539 33.5742L12.9039 34.3242L6.07188 41.1563L5.32189 40.4063L12.1539 33.5742Z" fill="url(#paint18_linear_19_238)"/>
</g>
<g filter="url(#filter6_i_19_238)">
<path d="M43.255 9.92652C43.8179 9.3636 44.134 8.60002 44.1337 7.80393L44.1322 4.06038C44.1319 3.56362 43.7293 3.16098 43.2325 3.16077L39.4889 3.15918C38.6929 3.15883 37.9292 3.47494 37.3664 4.03786L10.121 31.2832L16.0097 37.1719L43.255 9.92652Z" fill="url(#paint19_linear_19_238)"/>
<path d="M43.255 9.92652C43.8179 9.3636 44.134 8.60002 44.1337 7.80393L44.1322 4.06038C44.1319 3.56362 43.7293 3.16098 43.2325 3.16077L39.4889 3.15918C38.6929 3.15883 37.9292 3.47494 37.3664 4.03786L10.121 31.2832L16.0097 37.1719L43.255 9.92652Z" fill="url(#paint20_linear_19_238)"/>
</g>
<g filter="url(#filter7_i_19_238)">
<path d="M8.6648 44.3409C9.4463 43.5594 9.4463 42.2923 8.6648 41.5108L5.84051 38.6865C5.05901 37.905 3.79194 37.905 3.01044 38.6865C2.22894 39.468 2.22894 40.735 3.01044 41.5165L5.83472 44.3409C6.61623 45.1224 7.88328 45.1224 8.6648 44.3409Z" fill="url(#paint21_linear_19_238)"/>
<path d="M8.6648 44.3409C9.4463 43.5594 9.4463 42.2923 8.6648 41.5108L5.84051 38.6865C5.05901 37.905 3.79194 37.905 3.01044 38.6865C2.22894 39.468 2.22894 40.735 3.01044 41.5165L5.83472 44.3409C6.61623 45.1224 7.88328 45.1224 8.6648 44.3409Z" fill="url(#paint22_radial_19_238)"/>
</g>
<path d="M8.6648 44.3409C9.4463 43.5594 9.4463 42.2923 8.6648 41.5108L5.84051 38.6865C5.05901 37.905 3.79194 37.905 3.01044 38.6865C2.22894 39.468 2.22894 40.735 3.01044 41.5165L5.83472 44.3409C6.61623 45.1224 7.88328 45.1224 8.6648 44.3409Z" fill="url(#paint23_radial_19_238)"/>
<g filter="url(#filter8_i_19_238)">
<path d="M43.8827 3.43917C43.7189 3.26771 43.4881 3.16087 43.2322 3.16077L39.4888 3.15918C38.6926 3.15883 37.9291 3.47494 37.3661 4.03786L10.1207 31.2832L13.0797 34.2422L43.8827 3.43917Z" fill="url(#paint24_linear_19_238)"/>
<path d="M43.8827 3.43917C43.7189 3.26771 43.4881 3.16087 43.2322 3.16077L39.4888 3.15918C38.6926 3.15883 37.9291 3.47494 37.3661 4.03786L10.1207 31.2832L13.0797 34.2422L43.8827 3.43917Z" fill="url(#paint25_linear_19_238)"/>
</g>
<path d="M21.5172 38.1779C21.5172 38.3905 21.3686 38.5751 21.1594 38.612C20.5489 38.72 19.9204 38.7763 19.2789 38.7763C13.3518 38.7763 8.54688 33.9713 8.54688 28.0442C8.54688 27.445 8.596 26.8571 8.69043 26.2846C8.72533 26.0731 8.91097 25.9219 9.12538 25.9219H12.3158C12.6232 25.9219 12.8404 26.2238 12.7708 26.5232C12.657 27.0118 12.5969 27.521 12.5969 28.0442C12.5969 31.7347 15.5886 34.7263 19.2789 34.7263C19.8406 34.7263 20.386 34.657 20.9072 34.5265C21.2087 34.451 21.5172 34.6688 21.5172 34.9798V38.1779Z" fill="#614B76"/>
<path d="M21.5172 38.1779C21.5172 38.3905 21.3686 38.5751 21.1594 38.612C20.5489 38.72 19.9204 38.7763 19.2789 38.7763C13.3518 38.7763 8.54688 33.9713 8.54688 28.0442C8.54688 27.445 8.596 26.8571 8.69043 26.2846C8.72533 26.0731 8.91097 25.9219 9.12538 25.9219H12.3158C12.6232 25.9219 12.8404 26.2238 12.7708 26.5232C12.657 27.0118 12.5969 27.521 12.5969 28.0442C12.5969 31.7347 15.5886 34.7263 19.2789 34.7263C19.8406 34.7263 20.386 34.657 20.9072 34.5265C21.2087 34.451 21.5172 34.6688 21.5172 34.9798V38.1779Z" fill="url(#paint26_linear_19_238)"/>
<path d="M21.5172 38.1779C21.5172 38.3905 21.3686 38.5751 21.1594 38.612C20.5489 38.72 19.9204 38.7763 19.2789 38.7763C13.3518 38.7763 8.54688 33.9713 8.54688 28.0442C8.54688 27.445 8.596 26.8571 8.69043 26.2846C8.72533 26.0731 8.91097 25.9219 9.12538 25.9219H12.3158C12.6232 25.9219 12.8404 26.2238 12.7708 26.5232C12.657 27.0118 12.5969 27.521 12.5969 28.0442C12.5969 31.7347 15.5886 34.7263 19.2789 34.7263C19.8406 34.7263 20.386 34.657 20.9072 34.5265C21.2087 34.451 21.5172 34.6688 21.5172 34.9798V38.1779Z" fill="url(#paint27_radial_19_238)"/>
<path d="M21.5172 38.1779C21.5172 38.3905 21.3686 38.5751 21.1594 38.612C20.5489 38.72 19.9204 38.7763 19.2789 38.7763C13.3518 38.7763 8.54688 33.9713 8.54688 28.0442C8.54688 27.445 8.596 26.8571 8.69043 26.2846C8.72533 26.0731 8.91097 25.9219 9.12538 25.9219H12.3158C12.6232 25.9219 12.8404 26.2238 12.7708 26.5232C12.657 27.0118 12.5969 27.521 12.5969 28.0442C12.5969 31.7347 15.5886 34.7263 19.2789 34.7263C19.8406 34.7263 20.386 34.657 20.9072 34.5265C21.2087 34.451 21.5172 34.6688 21.5172 34.9798V38.1779Z" fill="url(#paint28_radial_19_238)"/>
<path d="M21.5172 38.1779C21.5172 38.3905 21.3686 38.5751 21.1594 38.612C20.5489 38.72 19.9204 38.7763 19.2789 38.7763C13.3518 38.7763 8.54688 33.9713 8.54688 28.0442C8.54688 27.445 8.596 26.8571 8.69043 26.2846C8.72533 26.0731 8.91097 25.9219 9.12538 25.9219H12.3158C12.6232 25.9219 12.8404 26.2238 12.7708 26.5232C12.657 27.0118 12.5969 27.521 12.5969 28.0442C12.5969 31.7347 15.5886 34.7263 19.2789 34.7263C19.8406 34.7263 20.386 34.657 20.9072 34.5265C21.2087 34.451 21.5172 34.6688 21.5172 34.9798V38.1779Z" fill="url(#paint29_radial_19_238)"/>
<g filter="url(#filter9_f_19_238)">
<path d="M19.279 37.8762C19.7333 37.8762 20.18 37.8454 20.6173 37.7859V35.5083C20.1823 35.5858 19.735 35.6262 19.279 35.6262C15.0914 35.6262 11.6969 32.2315 11.6969 28.0441C11.6969 27.6285 11.7304 27.2202 11.7951 26.8218H9.52205C9.47247 27.222 9.4469 27.6298 9.4469 28.0441C9.4469 33.4743 13.8489 37.8762 19.279 37.8762Z" fill="url(#paint30_linear_19_238)"/>
</g>
<defs>
<filter id="filter0_f_19_238" x="33.0038" y="32.9242" width="8.88203" height="8.88203" filterUnits="userSpaceOnUse" color-interpolation-filters="sRGB">
<feFlood flood-opacity="0" result="BackgroundImageFix"/>
<feBlend mode="normal" in="SourceGraphic" in2="BackgroundImageFix" result="shape"/>
<feGaussianBlur stdDeviation="0.325" result="effect1_foregroundBlur_19_238"/>
</filter>
<filter id="filter1_i_19_238" x="2.42432" y="3.15918" width="34.2128" height="34.2127" filterUnits="userSpaceOnUse" color-interpolation-filters="sRGB">
<feFlood flood-opacity="0" result="BackgroundImageFix"/>
<feBlend mode="normal" in="SourceGraphic" in2="BackgroundImageFix" result="shape"/>
<feColorMatrix in="SourceAlpha" type="matrix" values="0 0 0 0 0 0 0 0 0 0 0 0 0 0 0 0 0 0 127 0" result="hardAlpha"/>
<feOffset dx="0.2" dy="0.2"/>
<feGaussianBlur stdDeviation="0.2"/>
<feComposite in2="hardAlpha" operator="arithmetic" k2="-1" k3="1"/>
<feColorMatrix type="matrix" values="0 0 0 0 0.662745 0 0 0 0 0.643137 0 0 0 0 0.686275 0 0 0 1 0"/>
<feBlend mode="normal" in2="shape" result="effect1_innerShadow_19_238"/>
</filter>
<filter id="filter2_i_19_238" x="37.3069" y="38.1003" width="6.82666" height="6.82666" filterUnits="userSpaceOnUse" color-interpolation-filters="sRGB">
<feFlood flood-opacity="0" result="BackgroundImageFix"/>
<feBlend mode="normal" in="SourceGraphic" in2="BackgroundImageFix" result="shape"/>
<feColorMatrix in="SourceAlpha" type="matrix" values="0 0 0 0 0 0 0 0 0 0 0 0 0 0 0 0 0 0 127 0" result="hardAlpha"/>
<feOffset/>
<feGaussianBlur stdDeviation="0.25"/>
<feComposite in2="hardAlpha" operator="arithmetic" k2="-1" k3="1"/>
<feColorMatrix type="matrix" values="0 0 0 0 0.27451 0 0 0 0 0.258824 0 0 0 0 0.552941 0 0 0 1 0"/>
<feBlend mode="normal" in2="shape" result="effect1_innerShadow_19_238"/>
</filter>
<filter id="filter3_i_19_238" x="2.67505" y="3.15918" width="33.762" height="31.283" filterUnits="userSpaceOnUse" color-interpolation-filters="sRGB">
<feFlood flood-opacity="0" result="BackgroundImageFix"/>
<feBlend mode="normal" in="SourceGraphic" in2="BackgroundImageFix" result="shape"/>
<feColorMatrix in="SourceAlpha" type="matrix" values="0 0 0 0 0 0 0 0 0 0 0 0 0 0 0 0 0 0 127 0" result="hardAlpha"/>
<feOffset dy="0.2"/>
<feGaussianBlur stdDeviation="0.25"/>
<feComposite in2="hardAlpha" operator="arithmetic" k2="-1" k3="1"/>
<feColorMatrix type="matrix" values="0 0 0 0 0.772549 0 0 0 0 0.772549 0 0 0 0 0.776471 0 0 0 1 0"/>
<feBlend mode="normal" in2="shape" result="effect1_innerShadow_19_238"/>
</filter>
<filter id="filter4_f_19_238" x="25.3406" y="26.2218" width="12.3704" height="12.2544" filterUnits="userSpaceOnUse" color-interpolation-filters="sRGB">
<feFlood flood-opacity="0" result="BackgroundImageFix"/>
<feBlend mode="normal" in="SourceGraphic" in2="BackgroundImageFix" result="shape"/>
<feGaussianBlur stdDeviation="0.3" result="effect1_foregroundBlur_19_238"/>
</filter>
<filter id="filter5_f_19_238" x="4.6719" y="32.9242" width="8.88203" height="8.88203" filterUnits="userSpaceOnUse" color-interpolation-filters="sRGB">
<feFlood flood-opacity="0" result="BackgroundImageFix"/>
<feBlend mode="normal" in="SourceGraphic" in2="BackgroundImageFix" result="shape"/>
<feGaussianBlur stdDeviation="0.325" result="effect1_foregroundBlur_19_238"/>
</filter>
<filter id="filter6_i_19_238" x="10.121" y="3.15918" width="34.2127" height="34.2127" filterUnits="userSpaceOnUse" color-interpolation-filters="sRGB">
<feFlood flood-opacity="0" result="BackgroundImageFix"/>
<feBlend mode="normal" in="SourceGraphic" in2="BackgroundImageFix" result="shape"/>
<feColorMatrix in="SourceAlpha" type="matrix" values="0 0 0 0 0 0 0 0 0 0 0 0 0 0 0 0 0 0 127 0" result="hardAlpha"/>
<feOffset dx="0.2" dy="0.2"/>
<feGaussianBlur stdDeviation="0.2"/>
<feComposite in2="hardAlpha" operator="arithmetic" k2="-1" k3="1"/>
<feColorMatrix type="matrix" values="0 0 0 0 0.662745 0 0 0 0 0.643137 0 0 0 0 0.686275 0 0 0 1 0"/>
<feBlend mode="normal" in2="shape" result="effect1_innerShadow_19_238"/>
</filter>
<filter id="filter7_i_19_238" x="2.42432" y="38.1003" width="6.82666" height="6.82666" filterUnits="userSpaceOnUse" color-interpolation-filters="sRGB">
<feFlood flood-opacity="0" result="BackgroundImageFix"/>
<feBlend mode="normal" in="SourceGraphic" in2="BackgroundImageFix" result="shape"/>
<feColorMatrix in="SourceAlpha" type="matrix" values="0 0 0 0 0 0 0 0 0 0 0 0 0 0 0 0 0 0 127 0" result="hardAlpha"/>
<feOffset/>
<feGaussianBlur stdDeviation="0.25"/>
<feComposite in2="hardAlpha" operator="arithmetic" k2="-1" k3="1"/>
<feColorMatrix type="matrix" values="0 0 0 0 0.27451 0 0 0 0 0.258824 0 0 0 0 0.552941 0 0 0 1 0"/>
<feBlend mode="normal" in2="shape" result="effect1_innerShadow_19_238"/>
</filter>
<filter id="filter8_i_19_238" x="10.1207" y="3.15918" width="33.762" height="31.283" filterUnits="userSpaceOnUse" color-interpolation-filters="sRGB">
<feFlood flood-opacity="0" result="BackgroundImageFix"/>
<feBlend mode="normal" in="SourceGraphic" in2="BackgroundImageFix" result="shape"/>
<feColorMatrix in="SourceAlpha" type="matrix" values="0 0 0 0 0 0 0 0 0 0 0 0 0 0 0 0 0 0 127 0" result="hardAlpha"/>
<feOffset dy="0.2"/>
<feGaussianBlur stdDeviation="0.25"/>
<feComposite in2="hardAlpha" operator="arithmetic" k2="-1" k3="1"/>
<feColorMatrix type="matrix" values="0 0 0 0 0.772549 0 0 0 0 0.772549 0 0 0 0 0.776471 0 0 0 1 0"/>
<feBlend mode="normal" in2="shape" result="effect1_innerShadow_19_238"/>
</filter>
<filter id="filter9_f_19_238" x="8.8469" y="26.2218" width="12.3704" height="12.2544" filterUnits="userSpaceOnUse" color-interpolation-filters="sRGB">
<feFlood flood-opacity="0" result="BackgroundImageFix"/>
<feBlend mode="normal" in="SourceGraphic" in2="BackgroundImageFix" result="shape"/>
<feGaussianBlur stdDeviation="0.3" result="effect1_foregroundBlur_19_238"/>
</filter>
<linearGradient id="paint0_linear_19_238" x1="33.5923" y1="34.3855" x2="39.3141" y2="40.3591" gradientUnits="userSpaceOnUse">
<stop stop-color="#2B1E38"/>
<stop offset="1" stop-color="#502E76"/>
</linearGradient>
<linearGradient id="paint1_linear_19_238" x1="34.0289" y1="33.9492" x2="40.8609" y2="40.7812" gradientUnits="userSpaceOnUse">
<stop stop-color="#454249"/>
<stop offset="1" stop-color="#674D82"/>
</linearGradient>
<linearGradient id="paint2_linear_19_238" x1="10.7203" y1="14.1563" x2="31.4391" y2="35.5781" gradientUnits="userSpaceOnUse">
<stop stop-color="#9F94AC"/>
<stop offset="1" stop-color="#8F76A7"/>
</linearGradient>
<linearGradient id="paint3_linear_19_238" x1="23.7516" y1="18.9376" x2="20.0484" y2="22.5469" gradientUnits="userSpaceOnUse">
<stop offset="0.478307" stop-color="#ACA0B9"/>
<stop offset="1" stop-color="#ACA0B9" stop-opacity="0"/>
</linearGradient>
<radialGradient id="paint4_radial_19_238" cx="0" cy="0" r="1" gradientUnits="userSpaceOnUse" gradientTransform="translate(23.5493 27.1876) rotate(44.3969) scale(3.14901 11.7064)">
<stop offset="0.348328" stop-color="#8D72A7"/>
<stop offset="1" stop-color="#8D72A7" stop-opacity="0"/>
</radialGradient>
<linearGradient id="paint5_linear_19_238" x1="40.7202" y1="38.4844" x2="40.7202" y2="44.9269" gradientUnits="userSpaceOnUse">
<stop stop-color="#6563A7"/>
<stop offset="1" stop-color="#6345A1"/>
</linearGradient>
<radialGradient id="paint6_radial_19_238" cx="0" cy="0" r="1" gradientUnits="userSpaceOnUse" gradientTransform="translate(43.2984 39.6094) rotate(135) scale(4.5741 0.99437)">
<stop stop-color="#736DB2"/>
<stop offset="1" stop-color="#736DB2" stop-opacity="0"/>
</radialGradient>
<radialGradient id="paint7_radial_19_238" cx="0" cy="0" r="1" gradientUnits="userSpaceOnUse" gradientTransform="translate(42.8063 42.7266) rotate(178.44) scale(6.02567 6.48531)">
<stop offset="0.695376" stop-color="#6B669F" stop-opacity="0"/>
<stop offset="0.920466" stop-color="#6B669F"/>
</radialGradient>
<linearGradient id="paint8_linear_19_238" x1="5.42336" y1="4.07814" x2="33.5484" y2="31.3126" gradientUnits="userSpaceOnUse">
<stop stop-color="#DBD7E0"/>
<stop offset="1" stop-color="#D7D1DE"/>
</linearGradient>
<linearGradient id="paint9_linear_19_238" x1="20.6578" y1="21.7735" x2="21.232" y2="21.164" gradientUnits="userSpaceOnUse">
<stop stop-color="#C8BFD2"/>
<stop offset="1" stop-color="#C8BFD2" stop-opacity="0"/>
</linearGradient>
<radialGradient id="paint10_radial_19_238" cx="0" cy="0" r="1" gradientUnits="userSpaceOnUse" gradientTransform="translate(22.7992 21.0938) rotate(-64.8552) scale(10.1493 4.10648)">
<stop offset="0.378072" stop-color="#BDB8C2"/>
<stop offset="1" stop-color="#BDB8C2" stop-opacity="0"/>
</radialGradient>
<radialGradient id="paint11_radial_19_238" cx="0" cy="0" r="1" gradientUnits="userSpaceOnUse" gradientTransform="translate(34.7524 30.0001) rotate(-136.146) scale(6.63045 8.19981)">
<stop offset="0.126215" stop-color="#8A8094"/>
<stop offset="1" stop-color="#D1CBD8" stop-opacity="0"/>
</radialGradient>
<linearGradient id="paint12_linear_19_238" x1="25.0405" y1="37.0313" x2="28.4391" y2="37.2658" gradientUnits="userSpaceOnUse">
<stop offset="0.255385" stop-color="#403848"/>
<stop offset="1" stop-color="#403848" stop-opacity="0"/>
</linearGradient>
<radialGradient id="paint13_radial_19_238" cx="0" cy="0" r="1" gradientUnits="userSpaceOnUse" gradientTransform="translate(30.4546 31.3126) rotate(45.8303) scale(4.57458 17.6617)">
<stop offset="0.508" stop-color="#493A5A"/>
<stop offset="0.819465" stop-color="#493A5A" stop-opacity="0"/>
</radialGradient>
<radialGradient id="paint14_radial_19_238" cx="0" cy="0" r="1" gradientUnits="userSpaceOnUse" gradientTransform="translate(31.1578 30.8438) rotate(54.8025) scale(6.4246 11.1263)">
<stop offset="0.695608" stop-color="#492E62" stop-opacity="0"/>
<stop offset="0.917913" stop-color="#492E62"/>
</radialGradient>
<radialGradient id="paint15_radial_19_238" cx="0" cy="0" r="1" gradientUnits="userSpaceOnUse" gradientTransform="translate(38.3764 25.9219) rotate(99.6599) scale(8.93925 1.78746)">
<stop offset="0.0953586" stop-color="#7A678F"/>
<stop offset="1" stop-color="#7A678F" stop-opacity="0"/>
</radialGradient>
<linearGradient id="paint16_linear_19_238" x1="35.8454" y1="27.8905" x2="26.1422" y2="37.5937" gradientUnits="userSpaceOnUse">
<stop stop-color="#654E7E"/>
<stop offset="1" stop-color="#52475F"/>
</linearGradient>
<linearGradient id="paint17_linear_19_238" x1="12.9656" y1="34.3855" x2="7.24386" y2="40.3591" gradientUnits="userSpaceOnUse">
<stop stop-color="#2B1E38"/>
<stop offset="1" stop-color="#502E76"/>
</linearGradient>
<linearGradient id="paint18_linear_19_238" x1="12.5289" y1="33.9492" x2="5.69688" y2="40.7813" gradientUnits="userSpaceOnUse">
<stop stop-color="#454249"/>
<stop offset="1" stop-color="#674D82"/>
</linearGradient>
<linearGradient id="paint19_linear_19_238" x1="35.8378" y1="14.1563" x2="15.119" y2="35.5781" gradientUnits="userSpaceOnUse">
<stop stop-color="#9F94AC"/>
<stop offset="1" stop-color="#8F76A7"/>
</linearGradient>
<linearGradient id="paint20_linear_19_238" x1="22.8065" y1="18.9376" x2="26.5096" y2="22.5469" gradientUnits="userSpaceOnUse">
<stop offset="0.478307" stop-color="#ACA0B9"/>
<stop offset="1" stop-color="#ACA0B9" stop-opacity="0"/>
</linearGradient>
<linearGradient id="paint21_linear_19_238" x1="5.8376" y1="38.4844" x2="5.83761" y2="44.9269" gradientUnits="userSpaceOnUse">
<stop stop-color="#6563A7"/>
<stop offset="1" stop-color="#6345A1"/>
</linearGradient>
<radialGradient id="paint22_radial_19_238" cx="0" cy="0" r="1" gradientUnits="userSpaceOnUse" gradientTransform="translate(3.25943 39.6094) rotate(45) scale(4.5741 0.994369)">
<stop stop-color="#736DB2"/>
<stop offset="1" stop-color="#736DB2" stop-opacity="0"/>
</radialGradient>
<radialGradient id="paint23_radial_19_238" cx="0" cy="0" r="1" gradientUnits="userSpaceOnUse" gradientTransform="translate(3.75162 42.7266) rotate(1.56019) scale(6.02566 6.48531)">
<stop offset="0.695376" stop-color="#6B669F" stop-opacity="0"/>
<stop offset="0.920466" stop-color="#6B669F"/>
</radialGradient>
<linearGradient id="paint24_linear_19_238" x1="41.1344" y1="4.07814" x2="13.0094" y2="31.3126" gradientUnits="userSpaceOnUse">
<stop stop-color="#DBD7E0"/>
<stop offset="1" stop-color="#D7D1DE"/>
</linearGradient>
<linearGradient id="paint25_linear_19_238" x1="25.9" y1="21.7735" x2="25.3258" y2="21.164" gradientUnits="userSpaceOnUse">
<stop stop-color="#C8BFD2"/>
<stop offset="1" stop-color="#C8BFD2" stop-opacity="0"/>
</linearGradient>
<linearGradient id="paint26_linear_19_238" x1="21.5172" y1="37.0313" x2="18.1188" y2="37.2658" gradientUnits="userSpaceOnUse">
<stop offset="0.255385" stop-color="#403848"/>
<stop offset="1" stop-color="#403848" stop-opacity="0"/>
</linearGradient>
<radialGradient id="paint27_radial_19_238" cx="0" cy="0" r="1" gradientUnits="userSpaceOnUse" gradientTransform="translate(16.1032 31.3126) rotate(134.17) scale(4.57458 17.6618)">
<stop offset="0.508" stop-color="#493A5A"/>
<stop offset="0.819465" stop-color="#493A5A" stop-opacity="0"/>
</radialGradient>
<radialGradient id="paint28_radial_19_238" cx="0" cy="0" r="1" gradientUnits="userSpaceOnUse" gradientTransform="translate(15.4 30.8438) rotate(125.198) scale(6.4246 11.1263)">
<stop offset="0.695608" stop-color="#492E62" stop-opacity="0"/>
<stop offset="0.917913" stop-color="#492E62"/>
</radialGradient>
<radialGradient id="paint29_radial_19_238" cx="0" cy="0" r="1" gradientUnits="userSpaceOnUse" gradientTransform="translate(8.1813 25.9219) rotate(80.3401) scale(8.93925 1.78746)">
<stop offset="0.0953586" stop-color="#7A678F"/>
<stop offset="1" stop-color="#7A678F" stop-opacity="0"/>
</radialGradient>
<linearGradient id="paint30_linear_19_238" x1="10.7125" y1="27.8905" x2="20.4157" y2="37.5937" gradientUnits="userSpaceOnUse">
<stop stop-color="#654E7E"/>
<stop offset="1" stop-color="#52475F"/>
</linearGradient>
</defs>
</svg>
